
        <svg xmlns="http://www.w3.org/2000/svg" xmlns:xlink="http://www.w3.org/1999/xlink" version="1.1" width="3181.8181818181824" 
        height="1300" viewBox="0 0 3181.8181818181824 1300">
			<rect fill="#111111" width="3181.8181818181824" height="1300"/>
			<g transform="scale(9.090909090909092) translate(10, 10)">
				<defs id="SvgjsDefs1210"></defs><g id="SvgjsG1211" featureKey="symbolContainer" transform="matrix(1,0,0,1,0,0)" fill="#61c0bf"><rect width="110" height="123" rx="8"></rect></g><g id="SvgjsG1212" featureKey="monogramFeature-0" transform="matrix(2.13121391324708,0,0,2.13121391324708,19.999998094546278,-19.472700488283948)" fill="#111111"><path d="M0.72 16.5 l0 0 s6.54 -0.12 13.56 -0.18 c-1.14 8.52 -0.24 16.44 -0.24 16.44 c0.12 1.14 1.14 1.92 2.22 1.8 s1.92 -1.14 1.74 -2.22 c0 -0.06 -0.9 -7.98 0.3 -16.08 c6.9 -0.06 13.2 -0.12 13.26 -0.06 c1.92 1.68 1.44 41.7 0.18 42.84 c-0.54 0.48 -6.54 0.84 -13.02 0.9 c-1.38 -8.1 -0.72 -16.14 -0.72 -16.2 c0.18 -1.08 -0.66 -2.04 -1.8 -2.16 c-1.08 -0.12 -2.04 0.72 -2.16 1.8 c0 0.06 -0.72 8.1 0.6 16.62 c-7.08 0 -13.68 -0.3 -14.1 -0.96 c-1.2 -2.16 -0.06 -42.42 0.18 -42.54 z"></path></g><g id="SvgjsG1213" featureKey="nameFeature-0" transform="matrix(1.2883277049922994,0,0,1.2883277049922994,127.32027847190761,27.900800182114683)" fill="#fae3d9"><path d="M14.44 18.88 c3.96 0 7.88 2.6 7.88 9.16 l0 11.96 l-5.72 0 l0 -11.56 c0 -3.4 -1.32 -4.56 -3.52 -4.56 c-3.04 0 -4.84 2.88 -5.28 4.32 l0 11.8 l-5.72 0 l0 -28.28 l5.72 0 l0 11.32 c0.4 -1.08 2.64 -4.16 6.64 -4.16 z M41.56 19.2 l5.72 0 l0 20.8 l-5.72 0 l0 -2.56 c-0.12 0.84 -2.16 2.96 -5.76 2.96 c-4.76 0 -10.28 -3.44 -10.28 -10.84 c0 -7.16 5.52 -10.72 10.28 -10.72 c3.6 0 5.64 2.24 5.76 2.68 l0 -2.32 z M36.6 35.32 c2.8 0 5.24 -1.92 5.24 -5.76 c0 -3.72 -2.44 -5.64 -5.24 -5.64 c-2.88 0 -5.52 1.96 -5.52 5.64 c0 3.8 2.64 5.76 5.52 5.76 z M62.92 18.84 c4.76 0 10.28 3.56 10.28 10.72 c0 7.4 -5.52 10.84 -10.28 10.84 c-3.6 0 -5.64 -2.12 -5.76 -2.96 l0 2.56 l-5.72 0 l0 -20.8 l0 -7.48 l5.72 0 l0 9.8 c0.12 -0.44 2.16 -2.68 5.76 -2.68 z M62.12 35.32 c2.88 0 5.52 -1.96 5.52 -5.76 c0 -3.68 -2.64 -5.64 -5.52 -5.64 c-2.8 0 -5.24 1.92 -5.24 5.64 c0 3.84 2.44 5.76 5.24 5.76 z M82.39999999999999 11.719999999999999 l0 4.88 l-5.72 0 l0 -4.88 l5.72 0 z M82.39999999999999 19.2 l0 20.8 l-5.72 0 l0 -20.8 l5.72 0 z M96.03999999999999 35.2 c1.08 0 1.88 -0.12 2.76 -0.44 l0 4.8 c-0.88 0.4 -2.24 0.68 -4.24 0.68 c-3.24 0 -5.96 -1.12 -5.96 -7 l0 -9.32 l-2.92 0 l0 -4.72 l2.92 0 l0 -4.88 l5.72 0 l0 4.88 l4.44 0 l0 4.72 l-4.44 0 l0 9.28 c0 0.96 0.28 2 1.72 2 z M109.84 40.32 c-3.96 0 -7.88 -2.6 -7.88 -9.16 l0 -11.96 l5.72 0 l0 11.56 c0 3.4 1.32 4.56 3.52 4.56 c3.04 0 4.84 -2.88 5.28 -4.32 l0 -11.8 l5.72 0 l0 20.8 l-5.72 0 l0 -3.84 c-0.4 1.08 -2.64 4.16 -6.64 4.16 z M141.72 19.2 l5.72 0 l0 20.8 l-5.72 0 l0 -2.56 c-0.12 0.84 -2.16 2.96 -5.76 2.96 c-4.76 0 -10.28 -3.44 -10.28 -10.84 c0 -7.16 5.52 -10.72 10.28 -10.72 c3.6 0 5.64 2.24 5.76 2.68 l0 -2.32 z M136.76 35.32 c2.8 0 5.24 -1.92 5.24 -5.76 c0 -3.72 -2.44 -5.64 -5.24 -5.64 c-2.88 0 -5.52 1.96 -5.52 5.64 c0 3.8 2.64 5.76 5.52 5.76 z M157.32000000000002 11.719999999999999 l0 28.28 l-5.72 0 l0 -28.28 l5.72 0 z"></path></g>
			</g>
		</svg>
	